<?xml version="1.0" encoding="UTF-8"?>
<svg width="310px" height="246px" viewBox="0 0 310 246" version="1.1" xmlns="http://www.w3.org/2000/svg" xmlns:xlink="http://www.w3.org/1999/xlink">
    <!-- Generator: Sketch 45 (43475) - http://www.bohemiancoding.com/sketch -->
    <title>Illustration- Hero@3x</title>
    <desc>Created with Sketch.</desc>
    <defs>
        <path d="M80.5965917,0.479880267 C67.3358191,0.868802611 53.9758407,4.45631475 41.6822571,11.5539134 C2.06676899,34.424824 -11.5059304,85.0824065 11.3659799,124.694396 C29.4112912,155.951981 64.7539018,170.996382 98.3232565,164.71881 L98.3232565,1.86860169 C94.082836,1.07341174 89.775882,0.60685552 85.4432379,0.479880267 L80.5965917,0.479880267 L80.5965917,0.479880267 Z" id="path-1"></path>
        <path d="M0.434127749,0.231098745 C26.5706431,2.40955019 51.2459942,16.9364806 65.3528848,41.3708672 C74.138819,56.5887604 77.5469435,73.4357363 76.1668234,89.7110694 L0.434117588,89.7110694 L0.434117588,0.231097898 L0.434127749,0.231098745 Z" id="path-3"></path>
        <linearGradient x1="50%" y1="-3.89783073e-15%" x2="50%" y2="99.8449958%" id="linearGradient-5">
            <stop stop-color="#4387FD" offset="0%"></stop>
            <stop stop-color="#4683EA" offset="100%"></stop>
        </linearGradient>
    </defs>
    <g id="Spanner" stroke="none" stroke-width="1" fill="none" fill-rule="evenodd">
        <g id="Cloud-Data-Transfer-B" transform="translate(-783.000000, -410.000000)">
            <g id="Illustration--Hero" transform="translate(783.000000, 411.000000)">
                <g id="Group-17" transform="translate(26.824798, 37.679836)">
                    <path d="M216.216589,123.118303 C220.728993,123.118303 224.387199,126.776509 224.387199,131.288913 L224.387199,88.937393 C224.387199,84.4249891 220.728993,80.766783 216.216589,80.766783 L209.536452,80.766783 L209.536452,96.5581976" id="Fill-1" fill="#0288D1"></path>
                    <path d="M0.182435473,137.37691 L216.253226,137.37691 C220.76613,137.37691 224.423836,133.718704 224.423836,129.2063 L224.423836,88.4492157 C224.423836,92.9616197 220.76613,96.6198258 216.253226,96.6198258 L0.182435473,96.6198258" id="Fill-3" fill="#66BBFF"></path>
                    <path d="M200.690481,41.8704405 C223.562391,81.4854288 209.990691,132.140012 170.375703,155.011923 C130.760715,177.882833 80.1061309,164.309634 57.2352203,124.694646 C34.3633101,85.0821566 47.9365093,34.4245741 87.5514975,11.5541633 C127.163987,-11.3162475 177.82007,2.2564519 200.690481,41.8704405" id="Fill-5" fill="#E0DEDC"></path>
                    <path d="M188.232187,140.925355 C181.571543,143.696375 186.800693,133.359531 181.616027,124.249253 C176.425863,115.142474 175.498691,103.209695 169.95965,98.7722645 C164.421609,94.3363335 164.258167,95.5434065 156.533399,98.1759754 C148.807132,100.811543 142.189472,98.7822609 140.749482,91.9746688 C139.307991,85.1670766 139.525914,79.4356038 141.540202,74.323412 C143.556989,69.21172 147.700523,62.3161589 152.537312,61.4589621 C157.381099,60.6012655 163.076584,64.5913542 166.562851,63.268822 C170.04312,61.9447903 174.777946,57.0145341 178.960966,60.9811311 C183.145486,64.9447292 185.068806,68.1405988 189.880104,70.3038337 C194.688903,72.4645694 198.887418,74.9296975 197.338466,78.6823702 C195.788015,82.4410408 193.427849,91.4718466 195.318681,98.4368831 C197.210012,105.397921 202.326202,121.300796 200.616307,125.511807 C198.919407,129.716819 193.535311,138.715637 188.232187,140.925355" id="Fill-7" fill="#BDBDBD"></path>
                    <path d="M133.349999,49.0325573 C130.284083,47.5770721 135.505236,44.9764919 133.274525,41.9330684 C131.038316,38.8901446 129.113997,35.7052711 130.935353,34.8170853 C132.754709,33.9303989 141.309683,38.3998181 139.908679,42.4613815 C138.506175,46.5214455 135.308306,49.9612288 133.349999,49.0325573" id="Fill-9" fill="#BDBDBD"></path>
                    <path d="M101.470824,109.222268 C99.2236191,111.826847 91.5043494,109.568646 93.5096401,105.969419 C95.5114321,102.367193 98.5003749,104.656383 101.381356,103.635744 C104.261337,102.610107 103.153729,107.273957 101.470824,109.222268" id="Fill-11" fill="#BDBDBD"></path>
                    <path d="M115.14004,32.6705945 C114.352318,29.3727609 118.800745,28.6315231 120.138771,30.6118227 C121.478298,32.5881237 115.862284,35.697024 115.14004,32.6705945" id="Fill-13" fill="#BDBDBD"></path>
                    <path d="M127.86104,45.1540291 C127.49367,42.3925059 128.184926,38.7627897 131.049412,43.2282103 C132.144525,44.9331073 128.14294,47.2672817 127.86104,45.1540291" id="Fill-15" fill="#BDBDBD"></path>
                </g>
                <g id="Group-24" transform="translate(72.929919, 37.679836)">
                    <g id="Group-20">
                        <mask id="mask-2" fill="white">
                            <use xlink:href="#path-1"></use>
                        </mask>
                        <g id="Clip-19"></g>
                        <path d="M93.1160151,159.274715 C93.0070536,155.196657 92.0084068,149.305241 91.4541029,145.069239 C90.8968,140.837236 92.3462873,132.250273 95.7040997,128.35915 C99.0644111,124.474024 99.7346741,118.134266 94.4555413,118.081285 C89.1719101,118.026804 78.3377421,115.04236 72.013479,113.620363 C65.6897157,112.192868 63.4160199,112.927608 61.5691731,116.075494 C59.7258251,119.227879 52.923731,119.911138 51.1388623,117.778392 C49.349995,115.644147 45.8832212,114.705479 42.4124488,114.518545 C38.9431759,114.330112 35.6458421,112.181872 34.0159186,109.596286 C32.3829962,107.014199 35.2949662,102.967631 39.9853073,101.814039 C44.673649,100.654949 45.5328451,105.493237 46.1866139,100.671943 C46.8388832,95.8491484 45.9991802,89.5013936 46.6349553,86.9397996 C47.2647326,84.3807047 51.8471118,79.1450566 57.5076097,71.5077579 C63.1756049,63.8724585 49.9003004,62.824829 46.4575181,60.3751954 C43.0077383,57.9225629 39.9933045,57.8890748 37.8425652,61.9446403 C35.6833289,65.9982066 37.8930473,71.2998314 36.1961475,74.7511107 C34.4962488,78.2033896 27.6121836,72.5538879 25.5299201,69.8108581 C23.4441579,67.0693277 30.4391837,62.1685611 33.4876055,59.1796183 C36.5365271,56.1906755 31.292382,53.1162629 31.9191603,50.5591673 C32.5479379,48.0020718 36.288115,51.0574911 39.1221126,54.5617516 C41.9546107,58.0660122 44.569186,53.4081597 43.9893911,50.6851228 C43.4165936,47.9625857 39.9418227,48.5338837 38.7672381,45.3470109 C37.5911541,42.1636368 36.2111422,43.964 31.4108401,41.7977662 C26.6025407,39.6370305 34.9415912,35.948835 37.8190735,34.9246972 C40.7005543,33.9040582 43.3566149,39.3606282 45.4153867,44.3623591 C47.4771574,49.3620907 52.010554,49.4110734 56.5244574,50.2142893 C61.0428593,51.0160058 60.4995514,45.2770356 60.3765949,42.7084441 C60.2496398,40.1373535 64.0622913,37.1609063 66.3879687,31.1495325 C68.7131463,25.1396582 63.4465091,23.5752115 61.535685,18.8743742 C59.6268601,14.173037 69.2259649,18.4215343 67.840455,7.9217481 C67.3781185,4.40199302 64.572111,1.09616229 58.306827,0.479880267 C53.3515797,1.88488332 48.4463146,3.71773505 43.65301,6.0529091 C7.94813876,23.4387598 -10.7977309,61.6822331 -5.05476214,98.9805408 C0.35032609,107.07018 8.01961348,113.488909 13.1522981,112.998583 C21.7657515,112.184371 25.0880764,112.068412 28.5098661,116.785243 C31.9306562,121.494578 38.7227538,121.570051 43.5605427,120.716853 C48.3933334,119.862155 52.4503984,122.015893 56.6739046,122.213823 C60.8974107,122.409754 59.6448537,126.77571 58.4102904,129.627701 C57.1712287,132.482191 59.5343928,137.338474 65.6897157,140.725776 C71.8405402,144.111078 71.9914868,144.413971 75.1253783,147.764786 C78.2582702,151.1181 82.8071613,163.540206 82.7651761,167.31687 C82.740185,169.823984 83.4509336,172.43406 84.5895309,173.938528 C85.8046011,173.912038 87.0126738,173.859056 88.2302432,173.775086 C90.4914434,170.558724 93.1984859,162.506572 93.1160151,159.274715" id="Fill-18" fill="#BDBDBD" mask="url(#mask-2)"></path>
                    </g>
                    <g id="Group-23" transform="translate(89.468355, 0.499823)">
                        <mask id="mask-4" fill="white">
                            <use xlink:href="#path-3"></use>
                        </mask>
                        <g id="Clip-22"></g>
                        <path d="M4.46617033,-2.60777763 C2.38490646,0.047283276 4.66559979,4.37575231 4.66559979,4.37575231 C7.16871444,10.2906602 5.09894651,14.2067751 3.09715454,17.8115001 C1.09736187,21.4162251 0.343128636,27.8759403 2.58183681,30.1621317 C4.82204445,32.4528215 6.14057809,36.6948211 9.91724229,35.9780746 C13.6969054,35.2658266 14.3336802,31.9475002 12.5708037,27.5520549 C10.8099266,23.158109 10.2466258,18.9291048 13.101616,20.1636682 C15.9536072,21.399731 20.4050328,28.9905461 19.3154182,32.1484292 C18.2248039,35.3133098 13.9538146,39.6417788 10.9383811,39.6067912 C7.91744962,39.5803005 6.75686011,49.5312809 5.82768876,51.4840902 C4.90451528,53.4324011 0.95491225,56.109954 0.487077722,57.4619758 C0.0207426634,58.8149973 2.67680322,64.2760657 6.76935569,62.6616367 C10.8614083,61.0412099 11.741597,59.1458802 13.5864445,55.9949947 C15.431292,52.844609 17.3281211,48.88351 19.2639364,51.3191485 C21.2022508,53.7537874 23.7068649,55.756579 23.0920824,57.1235955 C22.4008269,58.6615515 28.3897086,59.6307088 26.1060164,55.8680396 C21.8085364,48.7925422 24.1187193,48.9559844 28.0338345,50.0535962 C31.945451,51.1542069 33.4654134,50.4139687 33.3564519,46.3359111 C33.245991,42.2603526 32.3523071,41.1902311 36.7502515,39.426355 C41.1426979,37.6654778 43.4083965,37.6889695 43.5228561,41.0102948 C43.6428136,44.3301205 43.477872,45.5371936 40.5908931,47.3135653 C37.7029146,49.0999335 36.1774541,50.5914059 37.5324748,51.0607399 C38.8844966,51.5245759 45.2432476,49.9351381 46.4138335,53.1150133 C47.5854191,56.2968879 45.1612766,57.4769705 48.7645021,59.477263 C52.3652285,61.4815541 54.4654857,62.7076205 56.409798,64.3890257 C58.3541103,66.0679319 58.8289423,63.9631764 62.8245291,71.3990463 C66.8231148,78.8364157 67.8402551,82.4731294 73.5327416,86.4567205 C75.4675573,87.8102417 78.3585348,89.4276696 81.1950315,89.7110694 C81.9717568,75.2121976 79.203236,60.3194651 72.3961436,46.3384102 C58.9099137,18.6452052 32.8731229,1.17188551 4.46617033,-2.60777763" id="Fill-21" fill="#BDBDBD" mask="url(#mask-4)"></path>
                    </g>
                </g>
                <g id="Group-70" transform="translate(0.000000, 62.828084)">
                    <path d="M68.2490676,25.2593158 C63.7366636,25.2593158 60.0784575,21.6011097 60.0784575,17.0887058 L60.0784575,59.4402261 C60.0784575,63.9526301 63.7366636,67.6108362 68.2490676,67.6108362 L73.9477626,67.6108362 L73.0003264,51.8194216" id="Fill-25" fill="#2A63C4"></path>
                    <polygon id="Fill-27" fill="#66BBFF" points="29.2842422 121.640626 9.99646413e-05 92.0435944 28.6919517 63.0373538"></polygon>
                    <path d="M174.930542,33.5101475 C174.930542,35.7108691 173.146173,37.495238 170.945451,37.495238 C168.74473,37.495238 166.960361,35.7108691 166.960361,33.5101475 C166.960361,31.3094259 168.74473,29.5250571 170.945451,29.5250571 C173.146173,29.5250571 174.930542,31.3094259 174.930542,33.5101475" id="Fill-53" fill="#0081F1"></path>
                    <path d="M284.283271,11.0007591 L68.2124805,11.0007591 C63.6995767,11.0007591 60.0418705,14.6589652 60.0418705,19.1713691 L60.0418705,59.9284534 C60.0418705,55.4160495 63.6995767,51.7578434 68.2124805,51.7578434 L284.283271,51.7578434" id="Fill-61" fill="url(#linearGradient-5)"></path>
                    <g id="Group-65" transform="translate(280.172332, 0.649770)" fill="url(#linearGradient-5)">
                        <polygon id="Fill-63" points="0.322985761 0.246412844 29.607128 29.8434444 0.915276269 58.849685"></polygon>
                    </g>
                    <path d="M245.455281,55.2664813 C244.513274,51.0618508 240.825954,47.9242544 236.410959,47.9242544 C236.098721,47.9242544 235.789791,47.9421155 235.484829,47.9698994 C232.716362,39.1114653 224.575679,32.6927224 214.952526,32.6927224 C206.127829,32.6927224 198.549439,38.1006605 195.218678,45.8305389 C193.392218,44.7205059 191.268734,44.0682457 188.989792,44.0682457 C182.659032,44.0682457 177.466749,48.9826888 176.876011,55.2664813 L245.455281,55.2664813 Z" id="Fill-66" fill="#FFFFFF"></path>
                    <path d="M137.550563,86.7072604 C133.795391,80.0041313 126.424498,75.4447439 117.935501,75.4447439 C109.406517,75.4447439 102.006635,80.0516145 98.2729554,86.8117235 C97.4432488,86.5992986 96.5760556,86.4733431 95.6798725,86.4733431 C92.2635809,86.4733431 89.2531456,88.1127633 87.4382876,90.6078808 C84.9811566,86.6327867 80.4772497,83.9617315 75.3085778,83.9617315 C67.5173336,83.9617315 61.1940701,90.0240873 61.1940701,97.5039416 L158.946995,97.5039416 C158.79205,90.3089865 152.675713,84.5195342 145.142378,84.5195342 C142.338869,84.5195342 139.730792,85.3282482 137.550563,86.7072604" id="Fill-68" fill="#FFFFFF" transform="translate(110.070533, 86.474343) scale(-1, 1) translate(-110.070533, -86.474343) "></path>
                </g>
                <path d="M233.092626,188.609197 C213.709447,209.451985 189.453788,220.785969 160.325651,222.611147 C131.197513,224.436325 105.455562,214.979554 83.0997964,194.240832" id="Path-44" stroke="#03A9F4" stroke-width="3" stroke-dasharray="4,6"></path>
                <polygon id="Path-46" fill="#445965" points="79.777551 200.307191 81.2168451 191.707787 90.2919731 190.187691 71.782146 182.237737"></polygon>
                <g id="Group-8" transform="translate(159.116809, 41.988953) rotate(-180.000000) translate(-159.116809, -41.988953) translate(78.116809, 21.488953)">
                    <path d="M161.323396,6.50485931 C141.940216,27.347648 117.684557,38.6816315 88.5564198,40.5068097 C59.4282824,42.331988 33.686331,32.8752164 11.3305656,12.1364949" id="Path-44" stroke="#66BBFF" stroke-width="3" stroke-dasharray="4,6"></path>
                    <polygon id="Path-46" fill="#445965" points="8.00832021 18.2028537 9.44761431 9.60345024 18.5227424 8.08335366 0.0129152168 0.133400062"></polygon>
                </g>
                <g id="Group-10" transform="translate(25.368580, 0.000000)">
                    <polygon id="Path-46" fill="#445965" transform="translate(13.142947, 105.215053) rotate(-132.000000) translate(-13.142947, -105.215053) " points="11.8834386 114.24978 13.3227327 105.650376 22.3978608 104.13028 3.8880336 96.1803259"></polygon>
                    <path d="M239.84113,59.2061141 C213.61699,20.6454877 177.424096,1.24383654 131.262446,1.00116062 C62.0199714,0.637146738 13.1755785,54.7949312 13.1755785,100.316893" id="Path-47" stroke="#03A9F4" stroke-width="3" stroke-dasharray="4,6"></path>
                </g>
                <g id="Group-10" transform="translate(165.510574, 185.910876) rotate(-180.000000) translate(-165.510574, -185.910876) translate(45.510574, 127.410876)">
                    <polygon id="Path-46" fill="#445965" transform="translate(13.142947, 103.215053) rotate(-132.000000) translate(-13.142947, -103.215053) " points="11.8834386 112.24978 13.3227327 103.650376 22.3978608 102.13028 3.8880336 94.1803259"></polygon>
                    <path d="M239.84113,57.2061141 C214.365003,20.7554962 178.505441,2.02051165 132.262446,1.00116062 C62.8979532,-0.527865927 13.1755785,52.7949312 13.1755785,98.3168933" id="Path-47" stroke="#4387FD" stroke-width="3" stroke-dasharray="4,6"></path>
                </g>
            </g>
        </g>
    </g>
</svg>